<mxfile host="app.diagrams.net" modified="2024-05-08T08:44:28.530Z" agent="Mozilla/5.0 (Windows NT 10.0; Win64; x64) AppleWebKit/537.36 (KHTML, like Gecko) Chrome/114.0.0.0 Safari/537.36" etag="GAp_pF9ELSjP55TBPCRr" version="24.3.1" type="github">
  <diagram id="C5RBs43oDa-KdzZeNtuy" name="Page-1">
    <mxGraphModel dx="1050" dy="581" grid="1" gridSize="10" guides="1" tooltips="1" connect="1" arrows="1" fold="1" page="1" pageScale="1" pageWidth="827" pageHeight="1169" math="0" shadow="0">
      <root>
        <mxCell id="WIyWlLk6GJQsqaUBKTNV-0" />
        <mxCell id="WIyWlLk6GJQsqaUBKTNV-1" parent="WIyWlLk6GJQsqaUBKTNV-0" />
        <mxCell id="WIyWlLk6GJQsqaUBKTNV-2" value="" style="rounded=0;html=1;jettySize=auto;orthogonalLoop=1;fontSize=11;endArrow=block;endFill=0;endSize=8;strokeWidth=1;shadow=0;labelBackgroundColor=none;edgeStyle=orthogonalEdgeStyle;" parent="WIyWlLk6GJQsqaUBKTNV-1" source="WIyWlLk6GJQsqaUBKTNV-3" edge="1">
          <mxGeometry relative="1" as="geometry">
            <mxPoint x="220" y="170" as="targetPoint" />
          </mxGeometry>
        </mxCell>
        <mxCell id="WIyWlLk6GJQsqaUBKTNV-3" value="定时触发&lt;div&gt;AutoOnlineService&lt;br&gt;&lt;/div&gt;" style="rounded=1;whiteSpace=wrap;html=1;fontSize=12;glass=0;strokeWidth=1;shadow=0;" parent="WIyWlLk6GJQsqaUBKTNV-1" vertex="1">
          <mxGeometry x="160" y="60" width="120" height="60" as="geometry" />
        </mxCell>
        <mxCell id="Vb5uBY2Feg9RNN3zf18O-1" style="edgeStyle=orthogonalEdgeStyle;rounded=0;orthogonalLoop=1;jettySize=auto;html=1;" edge="1" parent="WIyWlLk6GJQsqaUBKTNV-1" source="WIyWlLk6GJQsqaUBKTNV-7" target="WIyWlLk6GJQsqaUBKTNV-10">
          <mxGeometry relative="1" as="geometry" />
        </mxCell>
        <mxCell id="WIyWlLk6GJQsqaUBKTNV-7" value="根据合作模式，分片参数获取有效规则及明显" style="rounded=1;whiteSpace=wrap;html=1;fontSize=12;glass=0;strokeWidth=1;shadow=0;" parent="WIyWlLk6GJQsqaUBKTNV-1" vertex="1">
          <mxGeometry x="142.5" y="170" width="155" height="60" as="geometry" />
        </mxCell>
        <mxCell id="WIyWlLk6GJQsqaUBKTNV-8" value="存在" style="rounded=0;html=1;jettySize=auto;orthogonalLoop=1;fontSize=11;endArrow=block;endFill=0;endSize=8;strokeWidth=1;shadow=0;labelBackgroundColor=none;edgeStyle=orthogonalEdgeStyle;" parent="WIyWlLk6GJQsqaUBKTNV-1" source="WIyWlLk6GJQsqaUBKTNV-10" target="WIyWlLk6GJQsqaUBKTNV-11" edge="1">
          <mxGeometry x="0.3333" y="20" relative="1" as="geometry">
            <mxPoint as="offset" />
          </mxGeometry>
        </mxCell>
        <mxCell id="WIyWlLk6GJQsqaUBKTNV-9" value="不存在" style="edgeStyle=orthogonalEdgeStyle;rounded=0;html=1;jettySize=auto;orthogonalLoop=1;fontSize=11;endArrow=block;endFill=0;endSize=8;strokeWidth=1;shadow=0;labelBackgroundColor=none;" parent="WIyWlLk6GJQsqaUBKTNV-1" source="WIyWlLk6GJQsqaUBKTNV-10" target="WIyWlLk6GJQsqaUBKTNV-12" edge="1">
          <mxGeometry y="10" relative="1" as="geometry">
            <mxPoint as="offset" />
          </mxGeometry>
        </mxCell>
        <mxCell id="WIyWlLk6GJQsqaUBKTNV-10" value="是否存在&lt;div&gt;有效规则&lt;/div&gt;" style="rhombus;whiteSpace=wrap;html=1;shadow=0;fontFamily=Helvetica;fontSize=12;align=center;strokeWidth=1;spacing=6;spacingTop=-4;" parent="WIyWlLk6GJQsqaUBKTNV-1" vertex="1">
          <mxGeometry x="170" y="280" width="100" height="80" as="geometry" />
        </mxCell>
        <mxCell id="Vb5uBY2Feg9RNN3zf18O-4" style="edgeStyle=orthogonalEdgeStyle;rounded=0;orthogonalLoop=1;jettySize=auto;html=1;" edge="1" parent="WIyWlLk6GJQsqaUBKTNV-1" source="WIyWlLk6GJQsqaUBKTNV-11" target="Vb5uBY2Feg9RNN3zf18O-3">
          <mxGeometry relative="1" as="geometry" />
        </mxCell>
        <mxCell id="WIyWlLk6GJQsqaUBKTNV-11" value="遍历规则明细" style="rounded=1;whiteSpace=wrap;html=1;fontSize=12;glass=0;strokeWidth=1;shadow=0;" parent="WIyWlLk6GJQsqaUBKTNV-1" vertex="1">
          <mxGeometry x="160" y="410" width="120" height="40" as="geometry" />
        </mxCell>
        <mxCell id="WIyWlLk6GJQsqaUBKTNV-12" value="直接返回" style="rounded=1;whiteSpace=wrap;html=1;fontSize=12;glass=0;strokeWidth=1;shadow=0;" parent="WIyWlLk6GJQsqaUBKTNV-1" vertex="1">
          <mxGeometry x="330" y="300" width="120" height="40" as="geometry" />
        </mxCell>
        <mxCell id="Vb5uBY2Feg9RNN3zf18O-0" value="&lt;p style=&quot;background-color: rgb(255, 255, 255);&quot;&gt;&lt;font color=&quot;#080808&quot;&gt;支持&lt;/font&gt;&lt;span style=&quot;background-color: initial;&quot;&gt;&lt;font color=&quot;#080808&quot;&gt;买断立即上架，&lt;/font&gt;&lt;/span&gt;&lt;span style=&quot;background-color: initial;&quot;&gt;&lt;font color=&quot;#080808&quot;&gt;海淘，&lt;/font&gt;&lt;/span&gt;&lt;span style=&quot;color: rgb(8, 8, 8); background-color: initial;&quot;&gt;3PL，大进大出&lt;/span&gt;&lt;/p&gt;" style="text;html=1;align=center;verticalAlign=middle;whiteSpace=wrap;rounded=0;" vertex="1" parent="WIyWlLk6GJQsqaUBKTNV-1">
          <mxGeometry x="20" y="75" width="130" height="30" as="geometry" />
        </mxCell>
        <mxCell id="Vb5uBY2Feg9RNN3zf18O-7" style="edgeStyle=orthogonalEdgeStyle;rounded=0;orthogonalLoop=1;jettySize=auto;html=1;entryX=0;entryY=0.5;entryDx=0;entryDy=0;" edge="1" parent="WIyWlLk6GJQsqaUBKTNV-1" source="Vb5uBY2Feg9RNN3zf18O-3" target="Vb5uBY2Feg9RNN3zf18O-6">
          <mxGeometry relative="1" as="geometry" />
        </mxCell>
        <mxCell id="Vb5uBY2Feg9RNN3zf18O-8" value="加锁失败" style="edgeLabel;html=1;align=center;verticalAlign=middle;resizable=0;points=[];" vertex="1" connectable="0" parent="Vb5uBY2Feg9RNN3zf18O-7">
          <mxGeometry x="-0.2067" y="4" relative="1" as="geometry">
            <mxPoint x="4" y="-6" as="offset" />
          </mxGeometry>
        </mxCell>
        <mxCell id="Vb5uBY2Feg9RNN3zf18O-10" style="edgeStyle=orthogonalEdgeStyle;rounded=0;orthogonalLoop=1;jettySize=auto;html=1;entryX=0.5;entryY=0;entryDx=0;entryDy=0;" edge="1" parent="WIyWlLk6GJQsqaUBKTNV-1" source="Vb5uBY2Feg9RNN3zf18O-3" target="Vb5uBY2Feg9RNN3zf18O-9">
          <mxGeometry relative="1" as="geometry" />
        </mxCell>
        <mxCell id="Vb5uBY2Feg9RNN3zf18O-11" value="加锁成功" style="edgeLabel;html=1;align=center;verticalAlign=middle;resizable=0;points=[];" vertex="1" connectable="0" parent="Vb5uBY2Feg9RNN3zf18O-10">
          <mxGeometry x="-0.15" y="-1" relative="1" as="geometry">
            <mxPoint x="31" y="-2" as="offset" />
          </mxGeometry>
        </mxCell>
        <mxCell id="Vb5uBY2Feg9RNN3zf18O-3" value="加锁" style="rhombus;whiteSpace=wrap;html=1;shadow=0;fontFamily=Helvetica;fontSize=12;align=center;strokeWidth=1;spacing=6;spacingTop=-4;" vertex="1" parent="WIyWlLk6GJQsqaUBKTNV-1">
          <mxGeometry x="170" y="490" width="100" height="80" as="geometry" />
        </mxCell>
        <mxCell id="Vb5uBY2Feg9RNN3zf18O-5" value="&lt;p style=&quot;background-color: rgb(255, 255, 255);&quot;&gt;&lt;font color=&quot;#080808&quot;&gt;根据合作模式，采购协议，规则编码加锁&lt;/font&gt;&lt;/p&gt;" style="text;html=1;align=center;verticalAlign=middle;whiteSpace=wrap;rounded=0;" vertex="1" parent="WIyWlLk6GJQsqaUBKTNV-1">
          <mxGeometry x="20" y="510" width="130" height="30" as="geometry" />
        </mxCell>
        <mxCell id="Vb5uBY2Feg9RNN3zf18O-6" value="直接返回" style="rounded=1;whiteSpace=wrap;html=1;fontSize=12;glass=0;strokeWidth=1;shadow=0;" vertex="1" parent="WIyWlLk6GJQsqaUBKTNV-1">
          <mxGeometry x="330" y="510" width="120" height="40" as="geometry" />
        </mxCell>
        <mxCell id="Vb5uBY2Feg9RNN3zf18O-13" style="edgeStyle=orthogonalEdgeStyle;rounded=0;orthogonalLoop=1;jettySize=auto;html=1;" edge="1" parent="WIyWlLk6GJQsqaUBKTNV-1" source="Vb5uBY2Feg9RNN3zf18O-9" target="Vb5uBY2Feg9RNN3zf18O-12">
          <mxGeometry relative="1" as="geometry" />
        </mxCell>
        <mxCell id="Vb5uBY2Feg9RNN3zf18O-9" value="遍历规则明细" style="rounded=1;whiteSpace=wrap;html=1;fontSize=12;glass=0;strokeWidth=1;shadow=0;" vertex="1" parent="WIyWlLk6GJQsqaUBKTNV-1">
          <mxGeometry x="160" y="610" width="120" height="40" as="geometry" />
        </mxCell>
        <mxCell id="Vb5uBY2Feg9RNN3zf18O-15" style="edgeStyle=orthogonalEdgeStyle;rounded=0;orthogonalLoop=1;jettySize=auto;html=1;" edge="1" parent="WIyWlLk6GJQsqaUBKTNV-1" source="Vb5uBY2Feg9RNN3zf18O-12" target="Vb5uBY2Feg9RNN3zf18O-14">
          <mxGeometry relative="1" as="geometry" />
        </mxCell>
        <mxCell id="Vb5uBY2Feg9RNN3zf18O-12" value="组装参数" style="rounded=1;whiteSpace=wrap;html=1;fontSize=12;glass=0;strokeWidth=1;shadow=0;" vertex="1" parent="WIyWlLk6GJQsqaUBKTNV-1">
          <mxGeometry x="160" y="690" width="120" height="40" as="geometry" />
        </mxCell>
        <mxCell id="Vb5uBY2Feg9RNN3zf18O-14" value="执行转上线" style="rounded=1;whiteSpace=wrap;html=1;fontSize=12;glass=0;strokeWidth=1;shadow=0;" vertex="1" parent="WIyWlLk6GJQsqaUBKTNV-1">
          <mxGeometry x="160" y="770" width="120" height="40" as="geometry" />
        </mxCell>
      </root>
    </mxGraphModel>
  </diagram>
</mxfile>
